<?xml version="1.0" encoding="UTF-8"?>
<!--Generator: Apple Native CoreSVG 326-->
<!DOCTYPE svg
PUBLIC "-//W3C//DTD SVG 1.1//EN"
       "http://www.w3.org/Graphics/SVG/1.1/DTD/svg11.dtd">
<svg version="1.1" xmlns="http://www.w3.org/2000/svg" xmlns:xlink="http://www.w3.org/1999/xlink" viewBox="0 0 32.7539 31.9516">
 <g>
  <rect height="31.9516" opacity="0" width="32.7539" x="0" y="0"/>
  <path d="M16.1865 29.9724C16.5527 29.9724 16.9043 29.9578 17.2559 29.9285L18.0615 31.4372C18.252 31.8181 18.5889 31.9646 18.999 31.9206C19.4238 31.8474 19.6729 31.5691 19.7168 31.1589L19.9658 29.4597C20.6689 29.2693 21.3281 29.0203 21.9727 28.7273L23.2324 29.8699C23.54 30.1628 23.9209 30.1775 24.2871 29.9871C24.6533 29.782 24.7998 29.4304 24.7119 29.0203L24.3457 27.3503C24.9316 26.9402 25.4736 26.4714 25.9863 25.988L27.5537 26.6326C27.9492 26.779 28.3154 26.6912 28.5938 26.3689C28.8721 26.0466 28.9014 25.6804 28.667 25.3142L27.7588 23.8787C28.1543 23.2781 28.5059 22.6628 28.8281 22.0329L30.5127 22.0915C30.9375 22.1062 31.2598 21.9011 31.4062 21.491C31.5527 21.1101 31.4502 20.7439 31.1133 20.4949L29.751 19.4548C29.9414 18.7663 30.0586 18.0632 30.1318 17.3308L31.7432 16.8181C32.1533 16.6863 32.3877 16.3933 32.3877 15.9685C32.3877 15.5437 32.1533 15.2361 31.7432 15.1189L30.1318 14.6062C30.0586 13.8738 29.9414 13.1706 29.751 12.4822L31.0986 11.4421C31.4502 11.1931 31.5381 10.8269 31.4062 10.4314C31.2598 10.0212 30.9375 9.8308 30.5127 9.84545L28.8281 9.88939C28.5059 9.25951 28.1543 8.62963 27.7588 8.04369L28.6523 6.62279C28.8867 6.25658 28.8574 5.87572 28.6084 5.55346C28.3154 5.23119 27.9492 5.15795 27.5684 5.30443L25.9863 5.94896C25.4736 5.43627 24.917 4.98217 24.3457 4.57201L24.7119 2.91674C24.7998 2.49193 24.6533 2.15502 24.3018 1.94994C23.9209 1.73021 23.54 1.78881 23.2324 2.06713L21.958 3.19506C21.3281 2.90209 20.6543 2.66771 19.9512 2.46264L19.7168 0.778066C19.6729 0.36791 19.4092 0.104238 19.0137 0.0163477C18.5889-0.0568945 18.252 0.118887 18.0615 0.485098L17.2559 1.99389C16.9043 1.97924 16.5527 1.96459 16.1865 1.96459C15.835 1.96459 15.4834 1.97924 15.1172 1.99389L14.3262 0.499746C14.1211 0.118887 13.7842-0.042246 13.3887 0.0163477C12.9639 0.0895899 12.7148 0.36791 12.6562 0.778066L12.4072 2.46264C11.7188 2.66771 11.0449 2.91674 10.4004 3.20971L9.15527 2.06713C8.84766 1.77416 8.4668 1.74486 8.08594 1.94994C7.71973 2.15502 7.58789 2.50658 7.67578 2.91674L8.02734 4.58666C7.44141 4.99682 6.89941 5.45092 6.38672 5.94896L4.81934 5.30443C4.43848 5.1433 4.05762 5.24584 3.7793 5.56811C3.50098 5.87572 3.48633 6.25658 3.7207 6.62279L4.62891 8.05834C4.21875 8.64428 3.86719 9.27416 3.55957 9.90404L1.875 9.84545C1.43555 9.81615 1.12793 10.0359 0.981445 10.4314C0.820312 10.8269 0.9375 11.1931 1.27441 11.4421L2.62207 12.4822C2.44629 13.1706 2.31445 13.8738 2.25586 14.6062L0.629883 15.1189C0.219727 15.2361 0 15.5437 0 15.9685C0 16.3933 0.219727 16.6863 0.629883 16.8181L2.25586 17.3308C2.31445 18.0632 2.44629 18.7663 2.62207 19.4548L1.27441 20.4949C0.9375 20.7439 0.849609 21.1101 0.966797 21.5056C1.12793 21.9158 1.43555 22.1062 1.86035 22.0915L3.55957 22.0329C3.86719 22.6775 4.21875 23.2927 4.62891 23.8933L3.7207 25.3142C3.48633 25.6804 3.53027 26.0613 3.7793 26.3689C4.07227 26.7058 4.43848 26.779 4.81934 26.6326L6.38672 25.9734C6.89941 26.4861 7.45605 26.9402 8.02734 27.365L7.67578 29.0203C7.58789 29.4304 7.73438 29.782 8.08594 29.9871C8.4668 30.2068 8.84766 30.1628 9.14062 29.8699L10.415 28.7273C11.0596 29.0349 11.7334 29.2693 12.4219 29.4597L12.6562 31.1443C12.7148 31.5691 12.9785 31.8328 13.374 31.9206C13.7988 31.9939 14.1211 31.8181 14.3262 31.4372L15.1172 29.9285C15.4834 29.9578 15.835 29.9724 16.1865 29.9724ZM16.1865 27.5408C9.7998 27.5408 4.61426 22.3552 4.61426 15.9685C4.61426 9.56713 9.7998 4.39623 16.1865 4.39623C22.5879 4.39623 27.7588 9.56713 27.7588 15.9685C27.7588 22.3552 22.5879 27.5408 16.1865 27.5408ZM13.6377 13.7273L15.3662 12.6287L10.4736 4.2351L8.67188 5.24584ZM19.4531 16.9646L29.1943 16.9646L29.1943 14.9431L19.4531 14.9431ZM15.3955 19.3523L13.6816 18.239L8.52539 26.6472L10.3125 27.7019ZM16.2012 19.8064C18.3252 19.8064 20.0391 18.0925 20.0391 15.9685C20.0391 13.8445 18.3252 12.1306 16.2012 12.1306C14.0771 12.1306 12.3633 13.8445 12.3633 15.9685C12.3633 18.0925 14.0771 19.8064 16.2012 19.8064ZM16.2012 17.6091C15.293 17.6091 14.5605 16.8767 14.5605 15.9685C14.5605 15.0603 15.293 14.3279 16.2012 14.3279C17.1094 14.3279 17.8418 15.0603 17.8418 15.9685C17.8418 16.8767 17.1094 17.6091 16.2012 17.6091Z" fill="black" fill-opacity="0.85"/>
 </g>
</svg>
