<?xml version="1.0" encoding="UTF-8" standalone="no"?>
<!-- Generator: Adobe Illustrator 23.0.2, SVG Export Plug-In . SVG Version: 6.00 Build 0)  -->

<svg
   version="1.1"
   id="Ebene_1"
   x="0px"
   y="0px"
   viewBox="0 0 184.10001 88.375007"
   xml:space="preserve"
   sodipodi:docname="FIZ19-01_Logo (1).svg"
   width="184.10001mm"
   height="88.375008mm"
   inkscape:version="1.2 (dc2aeda, 2022-05-15)"
   xmlns:inkscape="http://www.inkscape.org/namespaces/inkscape"
   xmlns:sodipodi="http://sodipodi.sourceforge.net/DTD/sodipodi-0.dtd"
   xmlns="http://www.w3.org/2000/svg"
   xmlns:svg="http://www.w3.org/2000/svg"><defs
   id="defs70" /><sodipodi:namedview
   id="namedview68"
   pagecolor="#ffffff"
   bordercolor="#000000"
   borderopacity="0.25"
   inkscape:showpageshadow="2"
   inkscape:pageopacity="0.0"
   inkscape:pagecheckerboard="false"
   inkscape:deskcolor="#d1d1d1"
   showgrid="false"
   inkscape:zoom="1.281912"
   inkscape:cx="92.050003"
   inkscape:cy="58.116315"
   inkscape:window-width="1728"
   inkscape:window-height="1051"
   inkscape:window-x="0"
   inkscape:window-y="38"
   inkscape:window-maximized="1"
   inkscape:current-layer="Ebene_1"
   inkscape:document-units="mm" />
<style
   type="text/css"
   id="style53">
	.st0{fill:#00020F;}
	.st1{fill:#B11313;}
</style>
<g
   id="g65"
   transform="translate(-61.4,-34.325)">
	<path
   class="st0"
   d="m 153.8,84.8 h -13.5 v 37.9 h 13.5 V 103 c 0,-4.7 1.6,-8.8 7,-8.8 6.6,0 6.1,6.4 6.1,10 v 18.5 h 13.5 V 99.3 c 0,-9.3 -4.1,-15.7 -14.3,-15.7 -5.2,0 -9,1.6 -12.1,6.1 h -0.1 z"
   id="path55" />
	<polygon
   class="st0"
   points="226.7,122.7 245.5,122.7 225.4,102.3 244.4,84.8 226,84.8 212,98.5 212,61.4 198.5,61.4 198.5,122.7 212,122.7 212,107.3 "
   id="polygon57" />
	<rect
   x="107.8"
   y="84.800003"
   class="st0"
   width="13.1"
   height="37.900002"
   id="rect59" />
	<path
   class="st1"
   d="m 145,39.3 c 1,-1.3 0.8,-3.2 -0.5,-4.3 v 0 c -1.1,-0.9 -2.7,-0.9 -3.8,0 L 113,57.3 98.8,47.5 c -1.1,-0.8 -2.5,-0.7 -3.6,0.1 v 0 c -1.4,1 -1.7,2.9 -0.7,4.3 l 13.3,18.9 c 2.8,4 8.5,4 11.7,0.4 8.3,-9.7 19.2,-23.9 25.5,-31.9 z"
   id="path61" />
	<path
   class="st0"
   d="m 79.5,95.9 h 9.4 V 84.8 h -9.4 v -6.1 c 0,-4.3 1.2,-6.4 4.7,-6.4 1.8,0 3.2,0.6 4.7,1.3 V 61.9 c -1.8,-1 -3.7,-1.3 -5.8,-1.3 -5.1,0 -9.9,2.1 -13.2,6.1 -3.7,4.2 -3.8,8.1 -3.8,13.3 v 4.8 h -4.7 v 11.1 h 4.7 v 26.8 H 79.6 V 95.9 Z"
   id="path63" />
</g>
</svg>
